<svg width="100" height="88" viewBox="0 0 100 88" fill="none" xmlns="http://www.w3.org/2000/svg">
<path d="M13.2104 18.1388L97.442 18.1388L99.7837 14.6895L0.113029 14.6895L2.45437 18.1388H13.2104Z" fill="black"/>
<path d="M13.2103 26.756L91.5899 26.756L93.9315 23.3093L5.96632 23.3093L8.30898 26.756H13.2103Z" fill="black"/>
<path d="M14.1624 35.3773L85.7373 35.3773L88.0796 31.928L11.8197 31.928L14.1624 35.3773Z" fill="black"/>
<path d="M37.5771 69.8561H62.3264L64.6691 66.4067H35.2331L37.5771 69.8561Z" fill="black"/>
<path d="M52.9624 83.6453H46.9424L49.2837 87.0946H50.6211L52.9624 83.6453Z" fill="black"/>
<path d="M43.429 78.4759H56.4744L58.817 75.0266H41.089L43.429 78.4759Z" fill="black"/>
<path d="M76.3752 49.1667L23.5263 49.1667L25.869 52.6161L74.0331 52.6161L76.3752 49.1667Z" fill="black"/>
<path d="M20.0157 43.9961L79.8842 43.9961L82.2258 40.5481L17.6744 40.5481L20.0157 43.9961Z" fill="black"/>
<path d="M70.5217 57.7866L29.3797 57.7866L31.7237 61.2346L68.1796 61.2346L70.5217 57.7866Z" fill="black"/>
<path d="M13.397 0.00400391L87.6686 0L50.5343 54.6907L13.397 0.00400391Z" fill="#E37A0B"/>
</svg>
