<svg width="120" height="79" viewBox="0 0 120 79" fill="none" xmlns="http://www.w3.org/2000/svg">
<path d="M36.6391 0.410339C40.8544 0.410339 45.0697 1.77746 49.0572 4.39779C55.8928 8.95487 63.8677 8.95487 70.7033 4.39779C78.5643 -0.842859 87.5645 -0.842859 95.5394 4.39779C102.375 8.95487 110.35 8.95487 117.186 4.39779C117.869 3.94208 118.667 4.16993 119.122 4.73957C119.578 5.42313 119.35 6.33455 118.781 6.67633C110.92 11.917 101.919 11.917 93.9445 6.67633C87.1088 2.11925 79.1339 2.11925 72.2983 6.67633C64.4373 11.917 55.4371 11.917 47.4622 6.67633C40.6266 2.11925 32.6517 2.11925 25.8161 6.67633C17.9551 11.917 8.95485 11.917 0.979952 6.67633C0.29639 6.22062 0.182463 5.3092 0.638171 4.73957C1.09388 4.05601 2.0053 3.94208 2.57493 4.39779C9.41056 8.95487 17.3855 8.95487 24.2211 4.39779C28.2085 1.77746 32.4238 0.410339 36.6391 0.410339Z" fill="black"/>
<path d="M36.6391 22.8535C40.8544 22.8535 45.0697 24.2206 49.0572 26.841C55.8928 31.398 63.8677 31.398 70.7033 26.841C78.5643 21.6003 87.5645 21.6003 95.5394 26.841C102.375 31.398 110.35 31.398 117.186 26.841C117.869 26.3853 118.667 26.6131 119.122 27.1827C119.578 27.8663 119.35 28.6638 118.781 29.1195C110.92 34.3602 101.919 34.3602 93.9445 29.1195C87.1088 24.5624 79.1339 24.5624 72.2983 29.1195C64.4373 34.3602 55.4371 34.3602 47.4622 29.1195C40.6266 24.5624 32.6517 24.5624 25.8161 29.1195C17.9551 34.3602 8.95485 34.3602 0.979952 29.1195C0.29639 28.6638 0.182463 27.7524 0.638171 27.1827C1.09388 26.4992 2.0053 26.3853 2.57493 26.841C9.41056 31.398 17.3855 31.398 24.2211 26.841C28.2085 24.2206 32.4238 22.8535 36.6391 22.8535Z" fill="black"/>
<path d="M36.6391 45.4119C40.8544 45.4119 45.0697 46.779 49.0572 49.3993C55.8928 53.9564 63.8677 53.9564 70.7033 49.3993C78.5643 44.1587 87.5645 44.1587 95.5394 49.3993C102.375 53.9564 110.35 53.9564 117.186 49.3993C117.869 48.9436 118.667 49.1715 119.122 49.7411C119.578 50.4247 119.35 51.2221 118.781 51.6779C110.92 56.9185 101.919 56.9185 93.9445 51.6779C87.1088 47.1208 79.1339 47.1208 72.2983 51.6779C64.4373 56.9185 55.4371 56.9185 47.4622 51.6779C40.6266 47.1208 32.6517 47.1208 25.8161 51.6779C17.9551 56.9185 8.95485 56.9185 0.979952 51.6779C0.29639 51.2221 0.182463 50.3107 0.638171 49.7411C1.09388 49.0575 2.0053 48.9436 2.57493 49.3993C9.41056 53.9564 17.3855 53.9564 24.2211 49.3993C28.2085 46.779 32.4238 45.4119 36.6391 45.4119Z" fill="black"/>
<path d="M36.6391 67.8549C40.8544 67.8549 45.0697 69.222 49.0572 71.8424C55.8928 76.3995 63.8677 76.3995 70.7033 71.8424C78.5643 66.6017 87.5645 66.6017 95.5394 71.8424C102.375 76.3995 110.35 76.3995 117.186 71.8424C117.869 71.3867 118.667 71.6145 119.122 72.1841C119.578 72.8677 119.35 73.6652 118.781 74.1209C110.92 79.3616 101.919 79.3616 93.9445 74.1209C87.1088 69.5638 79.1339 69.5638 72.2983 74.1209C64.4373 79.3616 55.4371 79.3616 47.4622 74.1209C40.6266 69.5638 32.6517 69.5638 25.8161 74.1209C17.9551 79.3616 8.95485 79.3616 0.979952 74.1209C0.29639 73.6652 0.182463 72.7538 0.638171 72.1841C1.09388 71.5006 2.0053 71.3867 2.57493 71.8424C9.41056 76.3995 17.3855 76.3995 24.2211 71.8424C28.2085 69.222 32.4238 67.8549 36.6391 67.8549Z" fill="black"/>
</svg>
