<svg width="181" height="64" viewBox="0 0 181 64" fill="none" xmlns="http://www.w3.org/2000/svg">
<g clip-path="url(#clip0)">
<path fill-rule="evenodd" clip-rule="evenodd" d="M41.0316 26.2911C39.7704 28.3306 35.158 31.4374 29.2332 34.1024C28.2054 46.3727 34.827 53.3453 34.827 53.3453C37.382 52.5715 42.2587 48.9552 42.2587 48.9552C42.2587 53.3453 39.6855 62.901 39.6855 62.901C39.6855 62.901 48.6935 55.9098 51.5291 44.298C54.3611 32.6862 46.1349 21.0287 46.1349 21.0287C46.6306 29.2473 43.8606 37.3306 38.4335 43.506C38.705 43.1913 38.9328 42.842 39.1078 42.4633C40.0828 40.5061 41.9483 38.0712 41.0316 26.2911Z" fill="#E37A0B"/>
<path fill-rule="evenodd" clip-rule="evenodd" d="M28.9079 31.5155C28.9079 31.5155 14.2177 39.9116 21.1701 62.9065C21.1701 62.9065 3.86841 50.7716 12.9056 31.6509C15.4828 26.197 17.6388 22.1097 19.3744 18.8194C23.7248 10.572 25.4339 7.33202 24.5142 0.130005C24.5142 0.130005 39.4413 7.10294 40.7315 23.639C39.3456 25.6502 33.5497 29.2444 28.9079 31.5155Z" fill="#F03600"/>
</g>
<path d="M77.2203 28.2506V23.6223H68.9782V18.7088H78.7736V13.9537H63.8428V37.4119H68.9782V28.2506H77.2203Z" fill="white"/>
<path d="M90.7573 13.9537H85.6219V37.4119H100.014V32.6569H90.7573V13.9537Z" fill="white"/>
<path d="M110.386 37.4119L112.066 32.4667H119.642L121.291 37.4119H126.743L118.406 13.9537H113.398L105.029 37.4119H110.386ZM115.236 23.1468C115.521 22.2909 115.775 21.4033 115.87 20.8644C115.965 21.435 116.251 22.3543 116.504 23.1468L118.184 28.1555H113.556L115.236 23.1468Z" fill="white"/>
<path d="M137.779 37.4119V30.85C137.779 28.2823 137.747 26.3168 137.462 24.5733L142.407 37.4119H147.099L152.076 24.5733C151.822 26.3168 151.822 27.4264 151.822 32.4984V37.4119H156.799V13.9537H151.759L144.753 31.4523L137.779 13.9537H132.802V37.4119H137.779Z" fill="white"/>
<path d="M179.913 37.4119V32.6569H170.149V27.8068H178.803V23.3053H170.149V18.7088H179.913V13.9537H165.014V37.4119H179.913Z" fill="white"/>
<path d="M73.9869 63.3287C79.8514 63.3287 84.2261 59.8734 85.0503 54.6428H79.7246C79.0906 56.9569 76.9667 58.3834 74.082 58.3834C70.3097 58.3834 67.9638 55.6255 67.9638 51.2192C67.9638 46.7494 70.278 44.0549 74.082 44.0549C76.9033 44.0549 78.9004 45.3863 79.5978 47.7321H85.0186C84.2895 42.4699 80.0733 39.1097 74.2088 39.1097C67.203 39.1097 62.5431 43.9281 62.5431 51.2509C62.5431 58.6687 66.9494 63.3287 73.9869 63.3287Z" fill="white"/>
<path d="M101.577 62.9483V58.1932H91.8133V53.3431H100.468V48.8417H91.8133V44.2451H101.577V39.4901H86.6779V62.9483H101.577Z" fill="white"/>
<path d="M109.044 62.9483V48.0491L118.934 62.9483H124.006V39.4901H118.934V54.4209L109.044 39.4901H103.972V62.9483H109.044Z" fill="white"/>
<path d="M125.278 44.2451H131.936V62.9483H137.071V44.2451H143.728V39.4901H125.278V44.2451Z" fill="white"/>
<path d="M159.897 62.9483V58.1932H150.134V53.3431H158.788V48.8417H150.134V44.2451H159.897V39.4901H144.998V62.9483H159.897Z" fill="white"/>
<path d="M167.427 62.9483V54.7379H171.39L174.909 62.9483H180.52L176.399 53.6284C178.998 52.297 180.298 50.1414 180.298 47.0981C180.298 42.248 177.064 39.4901 171.358 39.4901H162.292V62.9483H167.427ZM167.427 44.0549H171.358C173.641 44.0549 174.877 45.1327 174.877 47.0981C174.877 49.0953 173.577 50.2365 171.327 50.2365H167.427V44.0549Z" fill="white"/>
<defs>
<clipPath id="clip0">
<rect width="62.5431" height="62.7773" fill="white" transform="translate(0 0.130005)"/>
</clipPath>
</defs>
</svg>
