<svg width="122" height="173" viewBox="0 0 122 173" fill="none" xmlns="http://www.w3.org/2000/svg">
<circle cx="2.55318" cy="2.49117" r="2.43062" fill="#E37A0B"/>
<circle cx="31.7207" cy="2.49117" r="2.43062" fill="#E37A0B"/>
<circle cx="60.8881" cy="2.49117" r="2.43062" fill="#E37A0B"/>
<circle cx="90.0556" cy="2.49117" r="2.43062" fill="#E37A0B"/>
<circle cx="119.223" cy="2.49117" r="2.43062" fill="#E37A0B"/>
<circle cx="2.55318" cy="30.4433" r="2.43062" fill="#E37A0B"/>
<circle cx="31.7207" cy="30.4433" r="2.43062" fill="#E37A0B"/>
<circle cx="60.8881" cy="30.4433" r="2.43062" fill="#E37A0B"/>
<circle cx="90.0556" cy="30.4433" r="2.43062" fill="#E37A0B"/>
<circle cx="119.223" cy="30.4433" r="2.43062" fill="#E37A0B"/>
<circle cx="2.55318" cy="58.3955" r="2.43062" fill="#E37A0B"/>
<circle cx="31.7207" cy="58.3955" r="2.43062" fill="#E37A0B"/>
<circle cx="60.8881" cy="58.3955" r="2.43062" fill="#E37A0B"/>
<circle cx="90.0556" cy="58.3955" r="2.43062" fill="#E37A0B"/>
<circle cx="119.223" cy="58.3955" r="2.43062" fill="#E37A0B"/>
<circle cx="2.55318" cy="86.3477" r="2.43062" fill="#E37A0B"/>
<circle cx="31.7207" cy="86.3477" r="2.43062" fill="#E37A0B"/>
<circle cx="60.8881" cy="86.3477" r="2.43062" fill="#E37A0B"/>
<circle cx="90.0556" cy="86.3477" r="2.43062" fill="#E37A0B"/>
<circle cx="119.223" cy="86.3477" r="2.43062" fill="#E37A0B"/>
<circle cx="2.55318" cy="114.3" r="2.43062" fill="#E37A0B"/>
<circle cx="31.7207" cy="114.3" r="2.43062" fill="#E37A0B"/>
<circle cx="60.8881" cy="114.3" r="2.43062" fill="#E37A0B"/>
<circle cx="90.0556" cy="114.3" r="2.43062" fill="#E37A0B"/>
<circle cx="119.223" cy="114.3" r="2.43062" fill="#E37A0B"/>
<circle cx="2.55318" cy="142.252" r="2.43062" fill="#E37A0B"/>
<circle cx="31.7207" cy="142.252" r="2.43062" fill="#E37A0B"/>
<circle cx="60.8881" cy="142.252" r="2.43062" fill="#E37A0B"/>
<circle cx="90.0556" cy="142.252" r="2.43062" fill="#E37A0B"/>
<circle cx="119.223" cy="142.252" r="2.43062" fill="#E37A0B"/>
<circle cx="2.55318" cy="170.204" r="2.43062" fill="#E37A0B"/>
<circle cx="31.7207" cy="170.204" r="2.43062" fill="#E37A0B"/>
<circle cx="60.8881" cy="170.204" r="2.43062" fill="#E37A0B"/>
<circle cx="90.0556" cy="170.204" r="2.43062" fill="#E37A0B"/>
<circle cx="119.223" cy="170.204" r="2.43062" fill="#E37A0B"/>
</svg>
